{
    "asset" : {
        "generator" : "Khronos glTF Blender I/O v1.5.17",
        "version" : "2.0"
    },
    "scene" : 0,
    "scenes" : [
        {
            "name" : "Scene",
            "nodes" : [
                0
            ]
        }
    ],
    "nodes" : [
        {
            "mesh" : 0,
            "name" : "Text.001",
            "rotation" : [
                0.7071068286895752,
                0,
                0,
                0.7071068286895752
            ],
            "scale" : [
                0.621681809425354,
                0.621681809425354,
                0.621681809425354
            ],
            "translation" : [
                -0.0332646369934082,
                -0.03920555114746094,
                0.0002377821074333042
            ]
        }
    ],
    "materials" : [
        {
            "doubleSided" : true,
            "name" : "Material.002",
            "pbrMetallicRoughness" : {
                "baseColorFactor" : [
                    0.1946461796760559,
                    1,
                    0.9152163863182068,
                    1
                ],
                "metallicFactor" : 0,
                "roughnessFactor" : 0.4000000059604645
            }
        }
    ],
    "meshes" : [
        {
            "name" : "Text",
            "primitives" : [
                {
                    "attributes" : {
                        "POSITION" : 0,
                        "NORMAL" : 1,
                        "TEXCOORD_0" : 2
                    },
                    "indices" : 3,
                    "material" : 0
                }
            ]
        }
    ],
    "accessors" : [
        {
            "bufferView" : 0,
            "componentType" : 5126,
            "count" : 17636,
            "max" : [
                5.3417158126831055,
                0.08999999612569809,
                -2.642850399017334
            ],
            "min" : [
                -4.477284908294678,
                -0.08999999612569809,
                -4.342850685119629
            ],
            "type" : "VEC3"
        },
        {
            "bufferView" : 1,
            "componentType" : 5126,
            "count" : 17636,
            "type" : "VEC3"
        },
        {
            "bufferView" : 2,
            "componentType" : 5126,
            "count" : 17636,
            "type" : "VEC2"
        },
        {
            "bufferView" : 3,
            "componentType" : 5123,
            "count" : 32496,
            "type" : "SCALAR"
        }
    ],
    "bufferViews" : [
        {
            "buffer" : 0,
            "byteLength" : 211632,
            "byteOffset" : 0
        },
        {
            "buffer" : 0,
            "byteLength" : 211632,
            "byteOffset" : 211632
        },
        {
            "buffer" : 0,
            "byteLength" : 141088,
            "byteOffset" : 423264
        },
        {
            "buffer" : 0,
            "byteLength" : 64992,
            "byteOffset" : 564352
        }
    ],
    "buffers" : [
        {
            "byteLength" : 629344,
            "uri" : "data:application/octet-stream;base64,"
        }
    ]
}
