{
    "asset" : {
        "generator" : "Khronos glTF Blender I/O v1.5.17",
        "version" : "2.0"
    },
    "scene" : 0,
    "scenes" : [
        {
            "name" : "Scene",
            "nodes" : [
                0,
                2
            ]
        }
    ],
    "nodes" : [
        {
            "mesh" : 0,
            "name" : "Text",
            "rotation" : [
                0.7071068286895752,
                0,
                0,
                0.7071068286895752
            ],
            "translation" : [
                -0.004343509674072266,
                0.009520485997200012,
                0.00023778423201292753
            ]
        },
        {
            "mesh" : 1,
            "name" : "arrow_model",
            "rotation" : [
                0.7071068286895752,
                0,
                0,
                0.7071067094802856
            ],
            "scale" : [
                10,
                10,
                10
            ],
            "translation" : [
                0.10000099241733551,
                0.06995432078838348,
                -36.306182861328125
            ]
        },
        {
            "children" : [
                1
            ],
            "name" : "arrow_root",
            "rotation" : [
                0,
                -0.7071068286895752,
                -0.7071067094802856,
                5.338507236274381e-08
            ],
            "scale" : [
                0.04091547802090645,
                0.04091547802090645,
                0.04091547802090645
            ],
            "translation" : [
                0,
                1.2258126735687256,
                0
            ]
        }
    ],
    "animations" : [
        {
            "channels" : [
                {
                    "sampler" : 0,
                    "target" : {
                        "node" : 1,
                        "path" : "translation"
                    }
                },
                {
                    "sampler" : 1,
                    "target" : {
                        "node" : 1,
                        "path" : "rotation"
                    }
                },
                {
                    "sampler" : 2,
                    "target" : {
                        "node" : 1,
                        "path" : "scale"
                    }
                }
            ],
            "name" : "arrow_modelAction",
            "samplers" : [
                {
                    "input" : 8,
                    "interpolation" : "LINEAR",
                    "output" : 9
                },
                {
                    "input" : 8,
                    "interpolation" : "LINEAR",
                    "output" : 10
                },
                {
                    "input" : 8,
                    "interpolation" : "LINEAR",
                    "output" : 11
                }
            ]
        }
    ],
    "materials" : [
        {
            "doubleSided" : true,
            "name" : "Material",
            "pbrMetallicRoughness" : {
                "metallicFactor" : 0,
                "roughnessFactor" : 0.4000000059604645
            }
        },
        {
            "doubleSided" : true,
            "emissiveFactor" : [
                0,
                0.27450981736183167,
                0.5686274766921997
            ],
            "name" : "arrow_material",
            "pbrMetallicRoughness" : {
                "baseColorFactor" : [
                    0.3490196168422699,
                    0.32156863808631897,
                    1,
                    1
                ],
                "roughnessFactor" : 0.5530382990837097
            }
        }
    ],
    "meshes" : [
        {
            "name" : "Text",
            "primitives" : [
                {
                    "attributes" : {
                        "POSITION" : 0,
                        "NORMAL" : 1,
                        "TEXCOORD_0" : 2
                    },
                    "indices" : 3,
                    "material" : 0
                }
            ]
        },
        {
            "name" : "arrow_model-mesh",
            "primitives" : [
                {
                    "attributes" : {
                        "POSITION" : 4,
                        "NORMAL" : 5,
                        "TEXCOORD_0" : 6
                    },
                    "indices" : 7,
                    "material" : 1
                }
            ]
        }
    ],
    "accessors" : [
        {
            "bufferView" : 0,
            "componentType" : 5126,
            "count" : 970,
            "max" : [
                2.072014331817627,
                0.08999999612569809,
                -2.5941243171691895
            ],
            "min" : [
                -2.270986318588257,
                -0.08999999612569809,
                -4.294124603271484
            ],
            "type" : "VEC3"
        },
        {
            "bufferView" : 1,
            "componentType" : 5126,
            "count" : 970,
            "type" : "VEC3"
        },
        {
            "bufferView" : 2,
            "componentType" : 5126,
            "count" : 970,
            "type" : "VEC2"
        },
        {
            "bufferView" : 3,
            "componentType" : 5123,
            "count" : 1848,
            "type" : "SCALAR"
        },
        {
            "bufferView" : 4,
            "componentType" : 5126,
            "count" : 28,
            "max" : [
                1.4614441394805908,
                4.040634632110596,
                0.5069950819015503
            ],
            "min" : [
                -1.4785557985305786,
                0.6206345558166504,
                -0.4930049479007721
            ],
            "type" : "VEC3"
        },
        {
            "bufferView" : 5,
            "componentType" : 5126,
            "count" : 28,
            "type" : "VEC3"
        },
        {
            "bufferView" : 6,
            "componentType" : 5126,
            "count" : 28,
            "type" : "VEC2"
        },
        {
            "bufferView" : 7,
            "componentType" : 5123,
            "count" : 30,
            "type" : "SCALAR"
        },
        {
            "bufferView" : 8,
            "componentType" : 5126,
            "count" : 100,
            "max" : [
                3.3333333333333335
            ],
            "min" : [
                0.03333333333333333
            ],
            "type" : "SCALAR"
        },
        {
            "bufferView" : 9,
            "componentType" : 5126,
            "count" : 100,
            "type" : "VEC3"
        },
        {
            "bufferView" : 10,
            "componentType" : 5126,
            "count" : 100,
            "type" : "VEC4"
        },
        {
            "bufferView" : 11,
            "componentType" : 5126,
            "count" : 100,
            "type" : "VEC3"
        }
    ],
    "bufferViews" : [
        {
            "buffer" : 0,
            "byteLength" : 11640,
            "byteOffset" : 0
        },
        {
            "buffer" : 0,
            "byteLength" : 11640,
            "byteOffset" : 11640
        },
        {
            "buffer" : 0,
            "byteLength" : 7760,
            "byteOffset" : 23280
        },
        {
            "buffer" : 0,
            "byteLength" : 3696,
            "byteOffset" : 31040
        },
        {
            "buffer" : 0,
            "byteLength" : 336,
            "byteOffset" : 34736
        },
        {
            "buffer" : 0,
            "byteLength" : 336,
            "byteOffset" : 35072
        },
        {
            "buffer" : 0,
            "byteLength" : 224,
            "byteOffset" : 35408
        },
        {
            "buffer" : 0,
            "byteLength" : 60,
            "byteOffset" : 35632
        },
        {
            "buffer" : 0,
            "byteLength" : 400,
            "byteOffset" : 35692
        },
        {
            "buffer" : 0,
            "byteLength" : 1200,
            "byteOffset" : 36092
        },
        {
            "buffer" : 0,
            "byteLength" : 1600,
            "byteOffset" : 37292
        },
        {
            "buffer" : 0,
            "byteLength" : 1200,
            "byteOffset" : 38892
        }
    ],
    "buffers" : [
        {
            "byteLength" : 40092,
            "uri" : "data:application/octet-stream;base64,"
        }
    ]
}
